# File created by Blade
# Date/Time:  Tue Sep 30 19:11:31 2014
#---------------------------------------------------------
:version 1.10
:name HOM
:units
  mass 1.0
  length 1.000000
  angle deg
:documentation
     Acclaim Skeleton File
:root
   axis xyz
   order TX TY TZ RX RY RZ
   position 0.000000 0.000000 0.000000
   orientation 0 0 0
:bonedata
   begin
      id 1
      name Spine_dum
      direction 0.000000 1.000000 0.000000
      length 7.508948
      axis 0.0 0.0 0.0 xyz
   end
   begin
      id 2
      name LeftUpLeg_dum
      direction 1.000000 0.000000 0.000000
      length 3.000560
      axis 0.0 0.0 0.0 xyz
   end
   begin
      id 3
      name RightUpLeg_dum
      direction -1.000000 0.000000 0.000000
      length 3.000560
      axis 0.0 0.0 0.0 xyz
   end
   begin
      id 4
      name Spine
      direction 0.000000 1.000000 0.000000
      length 0.000000
      axis 0.0 0.0 0.0 xyz
      dof rx ry rz
   end
   begin
      id 5
      name Spine_dum1
      direction 0.000000 1.000000 0.000000
      length 13.861154
      axis 0.0 0.0 0.0 xyz
   end
   begin
      id 6
      name Spine_dum2
      direction 0.000000 1.000000 0.000000
      length 8.204781
      axis 0.0 0.0 0.0 xyz
   end
   begin
      id 7
      name Spine_dum3
      direction 0.000000 1.000000 0.000000
      length 8.204781
      axis 0.0 0.0 0.0 xyz
   end
   begin
      id 8
      name Head
      direction 0.000000 1.000000 0.000000
      length 4.527550
      axis 0.0 0.0 0.0 xyz
      dof rx ry rz
   end
   begin
      id 9
      name LeftShoulder
      direction 1.000000 0.000000 0.000000
      length 6.635956
      axis 0.0 0.0 -90.0 xyz
      dof rx ry rz
   end
   begin
      id 10
      name LeftArm
      direction 1.000000 0.000000 0.000000
      length 10.274218
      axis 0.0 0.0 -90.0 xyz
      dof rx ry rz
   end
   begin
      id 11
      name LeftForeArm
      direction 1.000000 0.000000 0.000000
      length 8.522147
      axis 0.0 0.0 -90.0 xyz
      dof ry rz rx
   end
   begin
      id 12
      name LeftHand
      direction 0.000000 0.000000 0.000000
      length 0.000000
      axis 0.0 0.0 -90.0 xyz
      dof rx ry rz
   end
   begin
      id 13
      name LeftHand_dum1
      direction 0.000000 0.000000 0.000000
      length 0.000000
      axis 0.0 0.0 -90.0 xyz
   end
   begin
      id 14
      name LeftHand_dum2
      direction 1.000000 0.000000 0.000000
      length 3.937000
      axis 0.0 0.0 -90.0 xyz
   end
   begin
      id 15
      name LeftHandThumb1
      direction 0.000000 0.000000 1.000000
      length 3.937000
      axis 0.0 0.0 -90.0 xyz
      dof rx rz ry
   end
   begin
      id 16
      name RightShoulder
      direction -1.000000 0.000000 0.000000
      length 6.635956
      axis 0.0 0.0 90.0 xyz
      dof rx ry rz
   end
   begin
      id 17
      name RightArm
      direction -1.000000 0.000000 0.000000
      length 10.274218
      axis 0.0 0.0 90.0 xyz
      dof rx ry rz
   end
   begin
      id 18
      name RightForeArm
      direction -1.000000 0.000000 0.000000
      length 8.522147
      axis 0.0 0.0 90.0 xyz
      dof ry rz rx
   end
   begin
      id 19
      name RightHand
      direction 0.000000 0.000000 0.000000
      length 0.000000
      axis 0.0 0.0 90.0 xyz
      dof rx ry rz
   end
   begin
      id 20
      name RightHand_dum1
      direction 0.000000 0.000000 0.000000
      length 0.000000
      axis 0.0 0.0 90.0 xyz
   end
   begin
      id 21
      name RightHand_dum2
      direction -1.000000 0.000000 0.000000
      length 3.937000
      axis 0.0 0.0 90.0 xyz
   end
   begin
      id 22
      name RightHandThumb1
      direction 0.000000 0.000000 1.000000
      length 3.937000
      axis 0.0 0.0 90.0 xyz
      dof rx rz ry
   end
   begin
      id 23
      name LeftUpLeg
      direction 0.000000 -1.000000 0.000000
      length 16.490845
      axis 0.0 0.0 0.0 xyz
      dof rx ry rz
   end
   begin
      id 24
      name LeftLeg
      direction 0.000000 -1.000000 0.000000
      length 14.556576
      axis 0.0 0.0 0.0 xyz
      dof rx ry rz
   end
   begin
      id 25
      name LeftFoot
      direction 0.000000 -0.258819 0.965926
      length 4.831116
      axis 15.0 0.0 0.0 xyz
      dof rx ry rz
   end
   begin
      id 26
      name LeftToeBase
      direction 0.000000 0.000000 1.000000
      length 2.952750
      axis 0.0 0.0 0.0 xyz
      dof rx ry rz
   end
   begin
      id 27
      name RightUpLeg
      direction 0.000000 -1.000000 0.000000
      length 16.490845
      axis 0.0 0.0 0.0 xyz
      dof rx ry rz
   end
   begin
      id 28
      name RightLeg
      direction 0.000000 -1.000000 0.000000
      length 14.556576
      axis 0.0 0.0 0.0 xyz
      dof rx ry rz
   end
   begin
      id 29
      name RightFoot
      direction 0.000000 -0.258819 0.965926
      length 4.831116
      axis 15.0 0.0 0.0 xyz
      dof rx ry rz
   end
   begin
      id 30
      name RightToeBase
      direction 0.000000 0.000000 1.000000
      length 2.952750
      axis 0.0 0.0 0.0 xyz
      dof rx ry rz
   end
:hierarchy
   begin
      root Spine_dum LeftUpLeg_dum RightUpLeg_dum
      Spine_dum Spine
      LeftUpLeg_dum LeftUpLeg
      RightUpLeg_dum RightUpLeg
      Spine Spine_dum1 Spine_dum2 Spine_dum3
      Spine_dum1 Head
      Spine_dum2 LeftShoulder
      Spine_dum3 RightShoulder
      LeftShoulder LeftArm
      LeftArm LeftForeArm
      LeftForeArm LeftHand
      LeftHand LeftHand_dum1 LeftHand_dum2
      LeftHand_dum1 LeftHandThumb1
      RightShoulder RightArm
      RightArm RightForeArm
      RightForeArm RightHand
      RightHand RightHand_dum1 RightHand_dum2
      RightHand_dum1 RightHandThumb1
      LeftUpLeg LeftLeg
      LeftLeg LeftFoot
      LeftFoot LeftToeBase
      RightUpLeg RightLeg
      RightLeg RightFoot
      RightFoot RightToeBase
   end

# File created by Blade
# Date/Time:  Thu Sep 25 15:31:15 2014
# Frame Rate: 120.000 fps
#------------------------------------------------------
:FULLY-SPECIFIED
:DEGREES
197
root 15.056030 31.759941 1.734577 10.490109 -76.706564 -1.744933
Spine -2.927731 2.961465 0.318804
Head 12.252873 -22.892724 5.357106
LeftShoulder -11.992154 23.239661 14.064020
LeftArm 23.348575 5.466727 -66.644551
LeftForeArm 4.230276 0.000000 21.098566
LeftHand -26.366502 0.000000 2.281795
LeftHandThumb1 -26.253704 0.000000 33.147579
RightShoulder -19.818268 9.371457 -24.231685
RightArm -14.906012 -15.698944 84.824411
RightForeArm -24.624130 -0.000000 25.618911
RightHand -4.943115 -0.000000 -0.569205
RightHandThumb1 -24.326973 -0.000000 -32.862282
LeftUpLeg -2.863355 -10.420011 -1.481319
LeftLeg 18.479625 -0.000000 -0.000000
LeftFoot -28.518921 5.601309 -16.306849
LeftToeBase 1.206682 -0.000000 -0.000000
RightUpLeg -36.721915 6.538651 -16.941070
RightLeg 14.077693 -0.000000 -0.000000
RightFoot 14.795683 22.545435 -2.974768
RightToeBase -21.549889 -0.000000 0.000000
198
root 15.264977 31.811956 1.779868 10.470965 -77.704967 -1.662156
Spine -2.935938 3.246636 0.172006
Head 12.273801 -22.261457 5.341156
LeftShoulder -12.041380 23.427310 14.049077
LeftArm 23.050924 5.253370 -66.702513
LeftForeArm 4.196646 -0.000000 21.158914
LeftHand -26.322701 -0.000000 2.325412
LeftHandThumb1 -26.253704 0.000000 33.147579
RightShoulder -19.749485 9.367380 -24.238037
RightArm -14.713172 -15.678259 84.784338
RightForeArm -24.587063 -0.000000 25.287588
RightHand -5.003867 -0.000000 0.006694
RightHandThumb1 -24.326973 -0.000000 -32.862282
LeftUpLeg -2.922801 -10.031109 -1.831278
LeftLeg 17.839729 -0.000000 -0.000000
LeftFoot -28.150621 6.307790 -16.247459
LeftToeBase 1.327724 -0.000000 -0.000000
RightUpLeg -36.924714 6.488266 -16.546158
RightLeg 14.773620 -0.000000 -0.000000
RightFoot 12.186702 19.361651 -3.923248
RightToeBase -19.645509 -0.000000 0.000000
199
root 15.470004 31.865930 1.818216 10.898812 -78.684475 -2.022741
Spine -2.963856 3.490943 0.166941
Head 12.327927 -21.591330 5.250487
LeftShoulder -12.198879 23.747964 13.918445
LeftArm 22.869843 5.004595 -66.757213
LeftForeArm 4.132580 0.000000 21.248672
LeftHand -26.280191 -0.000000 2.440669
LeftHandThumb1 -26.253704 0.000000 33.147579
RightShoulder -19.617932 9.472954 -24.317977
RightArm -14.624976 -15.680225 84.819295
RightForeArm -24.007753 -0.000000 24.848438
RightHand -4.938292 -0.000000 -0.083504
RightHandThumb1 -24.326973 -0.000000 -32.862282
LeftUpLeg -3.028989 -9.429678 -2.049553
LeftLeg 17.244611 -0.000000 -0.000000
LeftFoot -27.739727 6.785295 -16.186558
LeftToeBase 1.518382 -0.000000 -0.000000
RightUpLeg -37.097386 6.572737 -16.112584
RightLeg 15.492368 -0.000000 -0.000000
RightFoot 9.651068 15.764650 -5.064391
RightToeBase -18.449369 -0.000000 0.000000
200
root 15.669116 31.922407 1.849990 11.503309 -79.712675 -2.534932
Spine -3.032132 3.781231 0.122436
Head 12.375022 -20.917923 5.249812
LeftShoulder -12.363850 24.022510 13.858024
LeftArm 22.612556 4.783576 -66.885262
LeftForeArm 4.232173 -0.000000 21.338880
LeftHand -26.282494 -0.000000 2.653969
LeftHandThumb1 -26.253704 0.000000 33.147579
RightShoulder -19.535344 9.576780 -24.357746
RightArm -14.498455 -15.745532 84.823530
RightForeArm -23.758135 -0.000000 24.406591
RightHand -4.845264 -0.000000 0.238216
RightHandThumb1 -24.326973 -0.000000 -32.862282
LeftUpLeg -3.123039 -8.891219 -2.250724
LeftLeg 16.606763 -0.000000 -0.000000
LeftFoot -27.343998 7.391410 -15.946066
LeftToeBase 1.742778 -0.000000 -0.000000
RightUpLeg -37.304185 6.750772 -15.671656
RightLeg 16.358079 -0.000000 -0.000000
RightFoot 7.253334 12.066125 -5.870181
RightToeBase -16.802955 -0.000000 0.000000
201
root 15.864103 31.979490 1.880074 12.338543 -80.727948 -3.241988
Spine -3.158395 4.082073 0.105942
Head 12.422354 -20.282799 5.219201
LeftShoulder -12.482641 24.160211 13.805508
LeftArm 22.154687 4.448786 -67.061474
LeftForeArm 4.260095 -0.000000 21.510982
LeftHand -26.407110 -0.000000 2.598572
LeftHandThumb1 -26.253704 0.000000 33.147579
RightShoulder -19.433100 9.719269 -24.425292
RightArm -14.454075 -15.807683 84.835304
RightForeArm -23.593369 -0.000000 23.969449
RightHand -5.020910 -0.000000 0.343725
RightHandThumb1 -24.326973 -0.000000 -32.862282
LeftUpLeg -3.247971 -8.379933 -2.415925
LeftLeg 15.924067 -0.000000 -0.000000
LeftFoot -26.905250 8.079770 -15.830317
LeftToeBase 1.818833 -0.000000 -0.000000
RightUpLeg -37.553428 6.855773 -15.180963
RightLeg 17.382333 -0.000000 -0.000000
RightFoot 5.253060 8.347051 -5.818121
RightToeBase -15.797374 -0.000000 0.000000
202
root 16.059001 32.038993 1.906190 13.858016 -81.742141 -4.587326
Spine -3.358764 4.402631 0.182939
Head 12.511944 -19.642705 5.113254
LeftShoulder -12.640522 24.429606 13.683564
LeftArm 21.843699 4.271946 -67.146999
LeftForeArm 4.204039 -0.000000 21.635483
LeftHand -26.525158 -0.000000 2.692892
LeftHandThumb1 -26.253704 0.000000 33.147579
RightShoulder -19.303591 9.808274 -24.501751
RightArm -14.385565 -15.865386 84.823908
RightForeArm -23.447064 -0.000000 23.558183
RightHand -4.956395 -0.000000 0.577685
RightHandThumb1 -24.326973 -0.000000 -32.862282
LeftUpLeg -3.431313 -7.991891 -2.514221
LeftLeg 15.266738 -0.000000 -0.000000
LeftFoot -26.518911 8.791554 -15.731589
LeftToeBase 2.519333 -0.000000 -0.000000
RightUpLeg -37.778897 7.029552 -14.671340
RightLeg 18.363717 -0.000000 -0.000000
RightFoot 3.744919 4.674289 -4.866682
RightToeBase -14.333805 -0.000000 0.000000
203
root 16.255606 32.095794 1.934611 15.340359 -82.762824 -5.871315
Spine -3.550145 4.700319 0.201674
Head 12.520014 -18.959442 5.049242
LeftShoulder -12.880317 24.704496 13.533401
LeftArm 21.558463 3.955126 -67.299438
LeftForeArm 4.375112 -0.000000 21.723696
LeftHand -26.406961 -0.000000 2.599372
LeftHandThumb1 -26.253704 0.000000 33.147579
RightShoulder -19.187198 9.925970 -24.614478
RightArm -14.313619 -15.978653 84.866103
RightForeArm -23.346394 -0.000000 23.134945
RightHand -4.664583 -0.000000 0.654050
RightHandThumb1 -24.326973 -0.000000 -32.862282
LeftUpLeg -3.628825 -7.628133 -2.674712
LeftLeg 14.580628 -0.000000 -0.000000
LeftFoot -26.072404 9.469856 -15.736636
LeftToeBase 2.538992 -0.000000 -0.000000
RightUpLeg -38.076397 7.091259 -14.172024
RightLeg 19.591516 -0.000000 -0.000000
RightFoot 2.240813 1.208212 -3.724899
RightToeBase -11.448424 -0.000000 0.000000
204
root 16.442355 32.152113 1.962549 17.454561 -83.752918 -7.793692
Spine -3.779489 5.028867 0.243058
Head 12.589044 -18.323366 5.019476
LeftShoulder -12.988128 24.848277 13.484561
LeftArm 21.051212 3.718428 -67.512820
LeftForeArm 4.294009 -0.000000 21.887311
LeftHand -26.469423 -0.000000 2.790462
LeftHandThumb1 -26.253704 0.000000 33.147579
RightShoulder -19.070922 9.991800 -24.697295
RightArm -14.253650 -16.073125 84.865435
RightForeArm -23.336552 -0.000000 22.778185
RightHand -4.869106 -0.000000 0.989866
RightHandThumb1 -24.326973 -0.000000 -32.862282
LeftUpLeg -3.796231 -7.256778 -2.799087
LeftLeg 13.867992 -0.000000 -0.000000
LeftFoot -25.696537 10.354452 -15.422663
LeftToeBase 3.179612 -0.000000 -0.000000
RightUpLeg -38.342721 7.050147 -13.564498
RightLeg 20.955984 -0.000000 -0.000000
RightFoot 1.045035 -1.993120 -3.370671
RightToeBase -8.822625 -0.000000 0.000000
205
root 16.624161 32.204436 1.992165 20.320451 -84.760338 -10.456156
Spine -4.028391 5.390297 0.282063
Head 12.635841 -17.704651 4.954479
LeftShoulder -13.151542 25.109048 13.395850
LeftArm 20.696341 3.532700 -67.684925
LeftForeArm 4.158613 -0.000000 21.999710
LeftHand -26.569366 -0.000000 2.999075
LeftHandThumb1 -26.253704 0.000000 33.147579
RightShoulder -18.939457 10.048745 -24.795041
RightArm -14.207600 -16.120757 84.842813
RightForeArm -23.317674 -0.000000 22.437434
RightHand -4.678044 0.000000 1.225805
RightHandThumb1 -24.326973 -0.000000 -32.862282
LeftUpLeg -3.943097 -7.015954 -2.936394
LeftLeg 13.119405 -0.000000 -0.000000
LeftFoot -25.288351 11.191346 -15.591398
LeftToeBase 2.783448 -0.000000 -0.000000
RightUpLeg -38.617109 6.840036 -12.853281
RightLeg 22.438052 -0.000000 -0.000000
RightFoot 0.185576 -4.746700 -3.845335
RightToeBase -6.621377 -0.000000 0.000000
206
root 16.806286 32.257001 2.020318 24.876072 -85.741029 -14.775265
Spine -4.309622 5.757334 0.370027
Head 12.691739 -17.070414 4.850464
LeftShoulder -13.310055 25.311582 13.290494
LeftArm 20.253468 3.347217 -67.880220
LeftForeArm 4.080243 0.000000 22.131477
LeftHand -26.613430 -0.000000 3.237658
LeftHandThumb1 -26.253704 0.000000 33.147579
RightShoulder -18.792786 10.121694 -24.893089
RightArm -14.183577 -16.284968 84.818015
RightForeArm -23.257866 0.000000 22.136196
RightHand -4.505709 -0.000000 1.368183
RightHandThumb1 -24.326973 -0.000000 -32.862282
LeftUpLeg -4.141406 -6.583777 -3.027999
LeftLeg 12.369760 -0.000000 -0.000000
LeftFoot -24.837139 12.056215 -15.200937
LeftToeBase 3.132737 -0.000000 -0.000000
RightUpLeg -38.949090 6.681759 -12.148561
RightLeg 24.103647 -0.000000 -0.000000
RightFoot -0.599839 -6.856837 -4.247605
RightToeBase -5.832538 -0.000000 0.000000
